<svg xmlns="http://www.w3.org/2000/svg" xmlns:xlink="http://www.w3.org/1999/xlink" width="500" zoomAndPan="magnify" viewBox="0 0 375 374.999991" height="500" preserveAspectRatio="xMidYMid meet" version="1.0"><defs><clipPath id="828be97480"><path d="M 187.5 0 C 83.945312 0 0 83.945312 0 187.5 C 0 291.054688 83.945312 375 187.5 375 C 291.054688 375 375 291.054688 375 187.5 C 375 83.945312 291.054688 0 187.5 0 " clip-rule="nonzero"/></clipPath><clipPath id="7b3431fe89"><path d="M 67.238281 67.238281 L 307.761719 67.238281 L 307.761719 307.761719 L 67.238281 307.761719 Z M 67.238281 67.238281 " clip-rule="nonzero"/></clipPath><clipPath id="950ca29f09"><path d="M 187.5 67.238281 C 121.082031 67.238281 67.238281 121.082031 67.238281 187.5 C 67.238281 253.917969 121.082031 307.761719 187.5 307.761719 C 253.917969 307.761719 307.761719 253.917969 307.761719 187.5 C 307.761719 121.082031 253.917969 67.238281 187.5 67.238281 " clip-rule="nonzero"/></clipPath><clipPath id="b58beb69ea"><path d="M 67.238281 67.238281 L 307.988281 67.238281 L 307.988281 307.988281 L 67.238281 307.988281 Z M 67.238281 67.238281 " clip-rule="nonzero"/></clipPath><clipPath id="f18a7bc140"><path d="M 187.613281 67.238281 C 121.132812 67.238281 67.238281 121.132812 67.238281 187.613281 C 67.238281 254.09375 121.132812 307.988281 187.613281 307.988281 C 254.09375 307.988281 307.988281 254.09375 307.988281 187.613281 C 307.988281 121.132812 254.09375 67.238281 187.613281 67.238281 " clip-rule="nonzero"/></clipPath><clipPath id="1fe8ddcd08"><path d="M 99 1 L 373.292969 1 L 373.292969 225 L 99 225 Z M 99 1 " clip-rule="nonzero"/></clipPath></defs><g clip-path="url(#828be97480)"><rect x="-37.5" width="450" fill="#5cb874" y="-37.499999" height="449.999989" fill-opacity="1"/><path stroke-linecap="butt" transform="matrix(0.75, 0, 0, 0.75, 0.0000045, -0.000000000000021316)" fill="none" stroke-linejoin="miter" d="M 249.999994 0.000000000000028422 C 111.927078 0.000000000000028422 -0.000006 111.927084 -0.000006 250 C -0.000006 388.072917 111.927078 500.000001 249.999994 500.000001 C 388.072911 500.000001 499.999995 388.072917 499.999995 250 C 499.999995 111.927084 388.072911 0.000000000000028422 249.999994 0.000000000000028422 " stroke="#000000" stroke-width="20" stroke-opacity="1" stroke-miterlimit="4"/></g><g clip-path="url(#7b3431fe89)"><g clip-path="url(#950ca29f09)"><path fill="#000000" d="M 67.238281 67.238281 L 307.761719 67.238281 L 307.761719 307.761719 L 67.238281 307.761719 Z M 67.238281 67.238281 " fill-opacity="1" fill-rule="nonzero"/></g></g><g clip-path="url(#b58beb69ea)"><g clip-path="url(#f18a7bc140)"><path stroke-linecap="butt" transform="matrix(0.750731, 0, 0, 0.750731, 67.238621, 67.238616)" fill="none" stroke-linejoin="miter" d="M 160.343329 -0.000446411 C 71.78898 -0.000446411 -0.000452405 71.788986 -0.000452405 160.343335 C -0.000452405 248.897685 71.78898 320.687117 160.343329 320.687117 C 248.897679 320.687117 320.687111 248.897685 320.687111 160.343335 C 320.687111 71.788986 248.897679 -0.000446411 160.343329 -0.000446411 " stroke="#000000" stroke-width="4" stroke-opacity="1" stroke-miterlimit="4"/></g></g><path fill="#f24c00" d="M 164.773438 274.828125 C 165.519531 272.417969 167.089844 270.320312 169.023438 268.695312 C 173.746094 264.703125 180.617188 263.601562 186.5 265.511719 C 192.378906 267.425781 197.171875 272.179688 199.542969 277.894531 C 201.136719 281.734375 201.683594 286.070312 200.726562 290.121094 C 200.4375 291.351562 199.996094 292.589844 199.179688 293.554688 C 198.371094 294.5 197.246094 295.128906 196.09375 295.589844 C 193.65625 296.574219 191.023438 296.917969 188.414062 297.230469 C 185.1875 297.617188 181.871094 297.953125 178.742188 297.113281 C 176.601562 296.535156 174.632812 295.425781 172.851562 294.113281 C 170.625 292.472656 168.640625 290.515625 166.84375 288.40625 C 165.078125 286.324219 164.796875 283.707031 164.191406 281.019531 C 163.945312 279.992188 164.035156 277.238281 164.773438 274.828125 Z M 164.773438 274.828125 " fill-opacity="1" fill-rule="nonzero"/><path fill="#f7c34b" d="M 222.363281 287.695312 C 261.054688 289.859375 299.410156 297.992188 335.65625 311.703125 C 346.105469 315.65625 356.5625 320.1875 365.023438 327.488281 C 368.875 330.816406 372.519531 335.570312 371.417969 340.535156 C 371.074219 342.066406 370.304688 343.460938 369.84375 344.960938 C 368.011719 350.980469 371.363281 358.007812 368.40625 363.566406 C 366.558594 367.035156 362.605469 368.953125 358.707031 369.414062 C 354.8125 369.878906 350.890625 369.125 347.015625 368.484375 C 338.226562 367.019531 328.992188 366.164062 320.570312 369.085938 C 316.554688 370.488281 312.820312 372.71875 308.667969 373.636719 C 303.085938 374.867188 297.179688 373.59375 292.023438 371.117188 C 286.867188 368.648438 282.347656 365.035156 277.945312 361.394531 C 255.210938 342.574219 234.132812 321.753906 215.039062 299.246094 C 213.324219 297.222656 211.527344 294.933594 211.582031 292.277344 C 211.632812 289.621094 214.710938 287.265625 222.363281 287.695312 Z M 196.539062 205.976562 C 194.398438 214.832031 192.34375 223.71875 190.785156 232.699219 C 189.445312 240.445312 188.476562 248.410156 189.9375 256.132812 C 190.390625 258.550781 191.539062 261.355469 193.960938 261.742188 C 195.710938 262.027344 197.34375 260.886719 198.738281 259.796875 C 203.164062 256.347656 207.554688 252.78125 212.542969 250.210938 C 217.503906 247.652344 222.992188 246.105469 227.640625 243.011719 C 232.195312 239.972656 235.699219 235.601562 238.738281 231.042969 C 242.601562 225.261719 245.941406 218.683594 245.621094 211.738281 C 245.46875 208.433594 244.492188 205.230469 244.007812 201.957031 C 242.988281 195.117188 244.121094 188.15625 244.746094 181.1875 C 246.640625 171.847656 248.546875 162.300781 247.378906 152.839844 C 246.921875 149.148438 245.558594 144.992188 242.09375 143.65625 C 238.859375 142.410156 235.296875 144.207031 232.414062 146.125 C 221.328125 153.472656 213.816406 164.589844 205.765625 179.085938 C 201.152344 187.386719 198.773438 196.734375 196.539062 205.976562 Z M 167.984375 255.328125 C 169.328125 256.445312 170.734375 257.542969 172.398438 258.074219 C 174.058594 258.601562 176.042969 258.445312 177.324219 257.265625 C 178.554688 256.132812 178.90625 254.355469 179.160156 252.699219 C 180.375 244.851562 181.066406 236.921875 182.347656 229.082031 C 184.332031 216.96875 187.699219 204.992188 187.914062 192.714844 C 187.984375 188.835938 187.675781 184.777344 185.65625 181.464844 C 183.636719 178.152344 179.441406 175.898438 175.796875 177.226562 C 173.03125 178.234375 170.847656 181.097656 167.917969 180.851562 C 166.867188 180.761719 165.898438 180.261719 164.871094 179.996094 C 162.023438 179.25 158.894531 180.433594 156.820312 182.523438 C 154.742188 184.613281 153.601562 187.484375 153.0625 190.378906 C 152.566406 193.042969 152.445312 195.980469 150.679688 198.03125 C 149.84375 199.003906 148.726562 199.667969 147.667969 200.375 C 145.28125 201.972656 142.941406 204.21875 142.800781 207.089844 C 142.6875 209.363281 144.007812 211.566406 143.695312 213.820312 C 143.53125 215.019531 142.914062 216.109375 142.578125 217.28125 C 141.28125 221.734375 144.8125 225.777344 147.125 229.984375 C 152.421875 239.632812 159.542969 248.277344 167.984375 255.328125 Z M 142.839844 277.425781 C 148.183594 276.835938 153.921875 276.074219 157.894531 272.449219 C 158.886719 271.546875 159.773438 270.03125 160.257812 268.605469 C 160.257812 262.71875 147.832031 251.746094 140.378906 244.433594 C 138.144531 242.242188 135.644531 240.167969 132.648438 239.265625 C 129.652344 238.363281 126.039062 238.90625 124.011719 241.292969 C 123.011719 242.464844 122.484375 243.949219 121.769531 245.316406 C 119.546875 249.53125 115.550781 252.507812 111.542969 255.074219 C 107.523438 257.640625 103.285156 260.011719 100.085938 263.546875 C 98.832031 264.929688 97.730469 266.570312 97.589844 268.425781 C 97.378906 271.179688 99.339844 273.640625 101.554688 275.28125 C 105.28125 278.042969 109.9375 279.328125 114.566406 279.683594 C 119.195312 280.042969 123.839844 279.527344 128.445312 279.019531 C 133.238281 278.484375 138.039062 277.953125 142.839844 277.425781 Z M 200.386719 362.910156 C 202.078125 358.730469 201.839844 354.046875 201.339844 349.5625 C 199.667969 334.457031 195.347656 319.707031 189.347656 305.75 C 188.742188 304.347656 187.730469 302.699219 186.210938 302.855469 C 184.816406 302.996094 184.09375 304.5625 183.675781 305.898438 C 178.695312 321.707031 176.878906 338.3125 175.089844 354.792969 C 174.804688 357.382812 174.53125 359.976562 174.679688 362.574219 C 174.804688 364.789062 175.304688 367.085938 176.742188 368.773438 C 178.101562 370.363281 180.171875 371.21875 182.242188 371.414062 C 184.324219 371.609375 186.292969 369.855469 190.085938 370.191406 C 194.570312 370.601562 198.695312 367.085938 200.386719 362.910156 Z M 133.699219 369.003906 C 137.816406 370.347656 141.855469 372.457031 146.167969 372.210938 C 151.730469 371.898438 156.328125 367.742188 159.601562 363.238281 C 169.246094 349.960938 171.28125 332.703125 171.699219 316.292969 C 171.839844 310.800781 171.800781 305.152344 169.789062 300.050781 C 169.5 299.320312 169.148438 298.574219 168.550781 298.066406 C 167.539062 297.207031 166.054688 297.207031 164.75 297.46875 C 161.488281 298.125 158.660156 300.09375 155.949219 302.011719 C 144.230469 310.300781 132.53125 318.613281 120.859375 326.960938 C 114.738281 331.332031 108.621094 335.71875 102.859375 340.542969 C 99.234375 343.582031 95.734375 346.804688 92.832031 350.535156 C 89.859375 354.351562 87.46875 359.210938 88.644531 363.902344 C 90.046875 369.496094 96.226562 372.808594 101.988281 372.847656 C 107.746094 372.875 109.476562 370.921875 114.269531 368.183594 C 122.921875 364.535156 127.453125 366.96875 133.699219 369.003906 Z M 343.101562 294.203125 C 349.535156 293.722656 356.367188 292.300781 360.839844 287.644531 C 364.039062 284.316406 365.722656 279.8125 366.921875 275.351562 C 370.351562 262.585938 369.785156 252.148438 369.210938 249.472656 C 368.636719 246.792969 367.21875 244.382812 365.722656 242.101562 C 363.300781 238.398438 360.527344 234.8125 356.839844 232.363281 C 351.867188 229.066406 345.703125 228.15625 339.738281 227.890625 C 320.585938 227.03125 301.691406 231.976562 283.183594 237.011719 C 259.773438 243.382812 236.175781 250.066406 214.933594 261.808594 C 211.871094 263.503906 208.503906 265.882812 208.375 269.382812 C 208.285156 271.96875 210.15625 274.320312 212.453125 275.523438 C 214.746094 276.722656 217.402344 277 219.988281 277.164062 C 240.679688 278.492188 261.925781 274.425781 281.933594 279.886719 C 291.324219 282.445312 300.042969 287.023438 309.292969 290.0625 C 320.152344 293.628906 331.710938 295.042969 343.101562 294.203125 Z M 58.050781 361.269531 C 89.777344 342.492188 118.355469 318.910156 146.789062 295.425781 C 148.210938 294.253906 149.671875 293.023438 150.441406 291.34375 C 151.207031 289.667969 151.050781 287.414062 149.582031 286.300781 C 148.4375 285.4375 146.863281 285.472656 145.425781 285.546875 C 129.035156 286.398438 112.578125 286.113281 96.226562 284.707031 C 91.507812 284.292969 86.730469 283.800781 82.054688 284.554688 C 68.4375 286.765625 58.855469 298.765625 46.929688 305.707031 C 39.511719 310.015625 31.113281 312.390625 23.601562 316.523438 C 18.605469 319.269531 13.902344 322.945312 11.21875 327.972656 C 8.535156 333.003906 8.253906 339.589844 11.621094 344.191406 C 13.960938 347.394531 17.941406 349.652344 18.742188 353.539062 C 19.171875 355.664062 18.53125 357.882812 18.800781 360.039062 C 19.210938 363.34375 21.796875 366.09375 24.84375 367.410156 C 27.902344 368.730469 31.351562 368.804688 32.261719 368.339844 C 41.167969 370.429688 50.179688 365.929688 58.050781 361.269531 Z M 262.71875 364.410156 C 262.324219 361.960938 261.136719 359.722656 259.871094 357.589844 C 255.808594 350.765625 250.753906 344.574219 245.304688 338.796875 C 239.515625 332.667969 233.269531 326.980469 227.03125 321.304688 C 220.472656 315.335938 213.914062 309.375 207.355469 303.40625 C 206.28125 302.4375 205.179688 301.4375 203.820312 300.929688 C 202.464844 300.421875 200.789062 300.503906 199.757812 301.519531 C 198.714844 302.542969 198.613281 304.175781 198.722656 305.628906 C 199.207031 311.824219 202.449219 317.53125 203.082031 323.707031 C 203.425781 327.070312 202.988281 330.511719 203.628906 333.832031 C 204.097656 336.269531 205.132812 338.550781 206.058594 340.859375 C 207.347656 344.082031 208.425781 347.394531 209.285156 350.757812 C 210.6875 356.253906 211.683594 362.269531 215.703125 366.265625 C 219.398438 369.945312 224.875 370.734375 230.140625 371.503906 C 237.601562 372.585938 245.089844 373.675781 252.625 373.667969 C 255.554688 373.667969 258.78125 373.375 260.855469 371.300781 C 262.597656 369.5625 263.113281 366.855469 262.71875 364.410156 Z M 262.71875 364.410156 " fill-opacity="1" fill-rule="nonzero"/><path fill="#f7c34b" d="M 86.722656 147.746094 C 94.25 146.765625 102.367188 151.609375 104.335938 158.941406 C 104.65625 160.128906 104.820312 161.359375 104.78125 162.589844 C 104.730469 164.410156 104.230469 166.191406 103.507812 167.871094 C 101.464844 172.640625 97.53125 176.636719 92.65625 178.40625 C 87.78125 180.171875 82.035156 179.570312 77.832031 176.53125 C 73.625 173.496094 71.21875 168.019531 72.160156 162.917969 C 73.625 154.964844 79.1875 148.722656 86.722656 147.746094 Z M 86.722656 147.746094 " fill-opacity="1" fill-rule="nonzero"/><path fill="#485696" d="M 120.171875 206.957031 C 121.984375 210.023438 123.636719 213.230469 124.570312 216.667969 C 125.5 220.109375 125.671875 223.832031 124.554688 227.210938 C 123.699219 229.8125 122.117188 232.117188 120.472656 234.3125 C 119.113281 236.117188 117.636719 237.929688 115.640625 238.988281 C 113.324219 240.21875 110.542969 240.292969 108.164062 241.40625 C 103.925781 243.382812 101.851562 248.089844 99.207031 251.957031 C 97.566406 254.355469 95.332031 256.675781 92.445312 257.027344 C 89.992188 257.328125 87.527344 256.058594 85.910156 254.191406 C 84.292969 252.320312 83.421875 249.910156 82.890625 247.492188 C 81.832031 242.609375 82.070312 237.542969 82.554688 232.566406 C 83.183594 226.179688 84.195312 219.847656 85.203125 213.511719 C 85.78125 209.878906 86.363281 206.253906 86.945312 202.621094 C 87.503906 199.144531 88.0625 195.644531 89.300781 192.355469 C 90.121094 190.183594 91.261719 188.082031 92.992188 186.53125 C 94.71875 184.984375 97.105469 184.054688 98.765625 183.703125 C 105.257812 184.523438 114.769531 197.800781 120.171875 206.957031 Z M 109.253906 174.511719 C 110.097656 180.21875 112.695312 185.539062 115.828125 190.386719 C 117.386719 192.789062 119.085938 195.117188 121.089844 197.160156 C 122.863281 198.964844 124.972656 200.597656 127.460938 201.0625 C 129.953125 201.523438 132.84375 200.53125 133.925781 198.242188 C 134.839844 196.296875 134.410156 193.683594 135.996094 192.230469 C 137.992188 190.394531 141.242188 191.996094 143.882812 191.386719 C 144.082031 191.738281 145.847656 190.691406 146.980469 189.363281 C 150.5 185.230469 149.628906 178.613281 146.28125 174.347656 C 142.925781 170.078125 137.710938 167.738281 132.53125 166.117188 C 129.101562 165.042969 125.597656 164.222656 122.058594 163.648438 C 118.183594 163.023438 113.628906 162.933594 111.011719 165.859375 C 108.976562 168.117188 108.8125 171.496094 109.253906 174.511719 Z M 140.878906 125.15625 C 137.195312 124.058594 133.1875 124.410156 129.535156 125.601562 C 125.882812 126.796875 122.542969 128.789062 119.382812 130.972656 C 114.957031 134.039062 110.699219 137.652344 108.210938 142.425781 C 107.105469 144.542969 106.398438 147.183594 107.585938 149.257812 C 108.484375 150.839844 110.257812 151.675781 111.9375 152.382812 C 119.351562 155.488281 127.097656 157.816406 134.988281 159.308594 C 137.992188 159.875 141.050781 160.320312 144.089844 160.03125 C 147.132812 159.742188 150.179688 158.652344 152.347656 156.503906 C 153.421875 155.441406 154.273438 154.078125 154.40625 152.578125 C 154.578125 150.585938 153.472656 148.699219 152.148438 147.207031 C 150.820312 145.714844 149.234375 144.445312 148.09375 142.804688 C 146.222656 140.113281 145.761719 136.496094 146.894531 133.414062 C 147.511719 131.726562 147.027344 129.675781 145.78125 128.175781 C 144.546875 126.660156 142.75 125.707031 140.878906 125.15625 Z M 90.679688 63.042969 C 88.363281 65.757812 86.886719 69.09375 85.617188 72.433594 C 79.15625 89.488281 77.324219 108.265625 80.355469 126.25 C 81.339844 132.070312 83.21875 138.382812 88.210938 141.523438 C 88.785156 141.886719 89.421875 142.203125 90.097656 142.246094 C 90.753906 142.289062 91.394531 142.066406 92.007812 141.835938 C 102.007812 138 109.269531 129.429688 116.863281 121.878906 C 123.199219 115.582031 130.070312 109.78125 135.683594 102.839844 C 137.464844 100.640625 139.15625 98.230469 139.65625 95.441406 C 140.484375 90.824219 137.785156 86.175781 134.164062 83.199219 C 130.539062 80.222656 126.074219 78.515625 121.84375 76.5 C 119.40625 75.335938 116.96875 74.023438 115.148438 72.023438 C 112.703125 69.332031 113.152344 65.789062 110.632812 62.199219 C 107.136719 57.953125 103.613281 57.992188 99.855469 58.132812 C 96.292969 58.261719 92.996094 60.328125 90.679688 63.042969 Z M 66.316406 147.765625 C 68.921875 148.871094 72.382812 149.570312 74.214844 147.417969 C 75.832031 145.515625 77.472656 142.328125 73.863281 133.054688 C 66.171875 117.851562 68.109375 107.25 70.464844 90.367188 C 72.71875 74.246094 78.121094 58.15625 75.78125 42.042969 C 74.820312 35.386719 72.523438 28.925781 69.09375 23.144531 C 63.632812 13.925781 54.71875 6.226562 44.125 4.613281 C 33.535156 3.003906 21.617188 8.859375 18.417969 19.085938 C 17.242188 22.847656 17.234375 26.972656 15.527344 30.523438 C 14.484375 32.695312 12.867188 34.535156 11.734375 36.664062 C 8.863281 42.011719 9.355469 48.578125 11.0625 54.402344 C 12.359375 58.839844 14.328125 63.378906 13.417969 67.914062 C 12.605469 71.964844 9.601562 75.261719 8.492188 79.238281 C 6.71875 85.601562 10.078125 92.203125 13.8125 97.648438 C 19.410156 105.804688 26.097656 113.152344 32.789062 120.433594 C 42.621094 131.152344 52.9375 142.105469 66.316406 147.765625 Z M 24.070312 190.011719 C 34.234375 185.128906 43.796875 178.988281 52.460938 171.765625 C 56.148438 168.691406 59.816406 165.214844 61.292969 160.652344 C 61.96875 158.5625 62.105469 156.128906 60.894531 154.300781 C 60.152344 153.183594 58.996094 152.414062 57.894531 151.636719 C 45.789062 143.097656 37.515625 129.75 24.835938 122.082031 C 23.667969 121.371094 22.4375 120.707031 21.089844 120.492188 C 19.738281 120.277344 18.242188 120.574219 17.300781 121.566406 C 16.324219 122.597656 16.058594 124.222656 14.902344 125.058594 C 13.875 125.796875 12.472656 125.667969 11.292969 126.125 C 9.601562 126.773438 8.589844 128.527344 8.039062 130.257812 C 7.15625 133.03125 7.152344 136.070312 8 138.851562 C 8.933594 141.902344 10.898438 144.828125 10.496094 147.992188 C 10.132812 150.824219 7.917969 153.109375 7.285156 155.898438 C 5.949219 161.800781 11.957031 167.171875 11.675781 173.222656 C 11.539062 176.070312 10.019531 178.644531 8.535156 181.089844 C 6.726562 184.074219 7.800781 187.886719 9.476562 189.917969 C 11.152344 191.945312 13.992188 192.707031 16.617188 192.484375 C 19.238281 192.238281 21.699219 191.148438 24.070312 190.011719 Z M 36.949219 299.773438 C 39.722656 298.929688 42.160156 297.238281 44.386719 295.386719 C 58.4375 283.714844 65.226562 265.464844 69.125 247.605469 C 70.9375 239.308594 72.253906 230.910156 73.574219 222.515625 C 74.894531 214.101562 76.21875 205.640625 76.28125 197.121094 C 76.300781 193.414062 76.078125 189.648438 74.773438 186.179688 C 74.035156 184.222656 72.851562 182.285156 70.945312 181.425781 C 69.796875 180.90625 68.492188 180.835938 67.230469 180.882812 C 60.164062 181.144531 53.71875 184.8125 47.734375 188.582031 C 39.386719 193.839844 31.285156 199.496094 23.472656 205.523438 C 17.726562 209.960938 12.078125 214.660156 7.6875 220.449219 C 5.867188 222.851562 4.207031 225.800781 4.890625 228.730469 C 5.324219 230.589844 6.644531 232.117188 7.328125 233.902344 C 10.09375 241.070312 2.039062 249.128906 4.800781 256.296875 C 6.910156 261.765625 14.089844 263.398438 17.414062 268.226562 C 20.402344 272.566406 19.621094 278.363281 18.710938 283.554688 C 18.992188 290.816406 21.148438 295.089844 24.628906 297.65625 C 28.109375 300.222656 32.820312 301.035156 36.949219 299.773438 Z M 239.140625 105.730469 C 239.375 112.472656 241.640625 115.0625 244.152344 119.171875 C 245.566406 121.492188 247.222656 123.707031 249.390625 125.347656 C 252.453125 127.667969 256.425781 128.667969 260.25 128.347656 C 264.074219 128.027344 267.75 126.429688 270.765625 124.058594 C 274.597656 121.050781 277.511719 116.433594 277.191406 111.578125 C 277.035156 109.167969 276.105469 106.871094 275 104.722656 C 273.121094 101.066406 270.632812 97.632812 267.300781 95.230469 C 263.96875 92.832031 259.699219 91.539062 255.667969 92.335938 C 253.320312 92.800781 244.054688 92.816406 239.140625 105.730469 Z M 239.140625 105.730469 " fill-opacity="1" fill-rule="nonzero"/><g clip-path="url(#1fe8ddcd08)"><path fill="#f24c00" d="M 193.519531 170.363281 C 188.625 172.863281 182.707031 173.675781 177.816406 171.152344 C 173.539062 168.953125 170.503906 164.3125 169.699219 159.277344 C 169.289062 156.75 169.394531 154.117188 168.664062 151.667969 C 167.613281 148.175781 164.996094 145.550781 162.703125 142.851562 C 158.945312 138.425781 155.800781 133.390625 153.414062 127.96875 C 151.230469 123 149.703125 117.0625 151.929688 112.121094 C 153.445312 108.773438 156.5 106.460938 159.765625 105.238281 C 163.027344 104.019531 166.53125 103.765625 169.984375 103.601562 C 184.972656 102.902344 199.992188 103.683594 214.980469 104.476562 C 218.535156 104.660156 222.097656 104.847656 225.59375 105.566406 C 227.796875 106.019531 230.003906 106.699219 231.875 108.042969 C 233.632812 109.308594 235.007812 111.101562 236.304688 112.90625 C 237.523438 114.597656 238.734375 116.398438 239.179688 118.492188 C 239.628906 120.582031 239.128906 123.058594 238.441406 122.804688 C 230.964844 138.300781 217.996094 148.410156 206.488281 159.890625 C 202.503906 163.867188 198.417969 167.863281 193.519531 170.363281 Z M 283.324219 220.285156 C 289.503906 218.242188 295.839844 216.167969 302.339844 216.371094 C 306.371094 216.496094 310.3125 217.496094 314.25 218.371094 C 323.03125 220.316406 331.945312 221.652344 340.902344 222.367188 C 345.816406 222.761719 351.03125 222.90625 355.355469 220.527344 C 357.390625 219.40625 359.214844 217.585938 359.582031 215.289062 C 359.804688 213.855469 359.445312 212.394531 358.953125 211.027344 C 356.933594 205.375 352.8125 200.695312 348.164062 196.898438 C 343.511719 193.101562 338.308594 190.074219 333.34375 186.707031 C 312.503906 172.578125 296.242188 152.800781 277.570312 135.90625 C 275.449219 133.980469 272.996094 131.980469 270.125 132.046875 C 268.246094 132.09375 266.488281 133.054688 265.085938 134.308594 C 261.628906 137.390625 260.0625 142.023438 258.847656 146.492188 C 253.421875 166.378906 252.140625 187.386719 255.101562 207.792969 C 255.742188 212.183594 256.695312 216.804688 259.699219 220.070312 C 262.261719 222.859375 266.054688 224.285156 269.820312 224.613281 C 273.597656 224.941406 276.542969 222.539062 283.324219 220.285156 Z M 289.722656 114.851562 C 286.589844 116.308594 283.421875 118.539062 282.648438 121.902344 C 281.859375 125.335938 283.816406 128.757812 285.898438 131.601562 C 294.492188 143.367188 306.304688 152.296875 316.878906 162.3125 C 322.679688 167.8125 328.15625 173.691406 334.46875 178.59375 C 340.785156 183.492188 348.109375 187.425781 356.046875 188.328125 C 359.5 188.714844 363.226562 188.453125 366.050781 186.425781 C 367.371094 185.476562 368.429688 184.179688 369.1875 182.746094 C 371.542969 178.316406 368.003906 174.300781 365.222656 166.65625 C 362.875 160.21875 365.125 153.101562 367.421875 146.648438 C 369.71875 140.195312 372.101562 133.167969 369.992188 126.640625 C 368.597656 122.328125 365.34375 118.792969 361.496094 116.402344 C 357.648438 114.015625 353.246094 112.675781 348.816406 111.757812 C 338.078125 109.527344 327.003906 109.601562 316.046875 110.046875 C 307.070312 110.40625 297.867188 111.070312 289.722656 114.851562 Z M 346.597656 86.183594 C 353.179688 82.667969 359.199219 77.835938 363.113281 71.488281 C 365.15625 68.175781 366.625 64.21875 365.796875 60.414062 C 365.214844 57.722656 363.53125 55.320312 363.253906 52.582031 C 362.757812 47.554688 366.972656 43.457031 369.023438 38.839844 C 370.476562 35.582031 370.84375 31.84375 369.277344 29.113281 C 367.503906 18.816406 371.542969 17.519531 372.675781 11.722656 C 372.996094 10.097656 373.308594 8.382812 372.796875 6.800781 C 371.984375 4.292969 369.34375 2.875 366.824219 2.128906 C 359.691406 0.0273438 351.875 1.347656 345.105469 4.425781 C 338.332031 7.5 332.441406 12.222656 326.832031 17.101562 C 308.257812 33.261719 291.496094 52.300781 282.183594 75.105469 C 279.660156 81.296875 276.976562 87.375 278.808594 93.816406 C 279.21875 95.253906 280.5625 97.492188 281.671875 98.492188 C 282.78125 99.492188 284.472656 99.820312 285.808594 99.945312 C 299.277344 101.261719 312.730469 97.894531 325.707031 94.070312 C 332.859375 91.964844 340.015625 89.691406 346.597656 86.183594 Z M 250.539062 1.324219 C 247.863281 1.019531 244.984375 1.183594 242.726562 2.652344 C 240.386719 4.179688 239.066406 6.890625 238.40625 9.605469 C 237.003906 15.347656 238.085938 21.390625 239.464844 27.144531 C 241.445312 35.417969 244.039062 43.527344 246.625 51.628906 C 249.167969 59.574219 251.703125 67.527344 254.242188 75.46875 C 254.882812 77.46875 255.5625 79.550781 257.015625 81.074219 C 258.46875 82.59375 261.496094 83.902344 263.113281 81.542969 C 273.671875 66.175781 283.707031 50.441406 293.179688 34.378906 C 296.527344 28.703125 299.925781 22.457031 299.121094 15.917969 C 298.640625 12.023438 296.363281 8.121094 292.679688 6.769531 C 287.269531 4.777344 281.5 8.746094 275.738281 8.785156 C 272.957031 8.800781 270.253906 7.894531 267.660156 6.890625 C 262.039062 4.71875 256.515625 2.003906 250.539062 1.324219 Z M 242.617188 87.046875 C 244.332031 83.003906 242.964844 78.378906 241.527344 74.226562 C 234.96875 55.328125 226.882812 36.847656 215.820312 20.183594 C 212.519531 15.199219 208.882812 10.320312 204.132812 6.6875 C 199.386719 3.054688 193.347656 0.773438 187.429688 1.59375 C 176.207031 3.144531 168.945312 14.804688 158.125 18.183594 C 150.03125 20.714844 141.363281 18.230469 132.96875 16.996094 C 125.300781 15.878906 117.222656 15.871094 110.074219 18.886719 C 107.167969 20.109375 104.410156 21.871094 102.539062 24.398438 C 98.804688 29.441406 99.304688 36.625 101.949219 42.316406 C 104.386719 47.570312 108.5 52.03125 113.539062 54.886719 C 118.292969 57.589844 123.789062 58.863281 128.363281 61.863281 C 135.257812 66.390625 139.238281 74.246094 145.527344 79.589844 C 151.519531 84.675781 159.25 87.167969 166.84375 89.175781 C 184.988281 93.972656 203.6875 96.671875 222.445312 97.203125 C 226.816406 97.328125 231.355469 97.300781 235.296875 95.410156 C 239.230469 93.539062 241.742188 89.109375 242.617188 87.046875 Z M 242.617188 87.046875 " fill-opacity="1" fill-rule="nonzero"/></g></svg>